<svg width="19" height="18" viewBox="0 0 19 18" fill="none" xmlns="http://www.w3.org/2000/svg">
<g id="Vector">
<path id="Vector_2" d="M14.5435 9.51237C14.5344 8.03695 15.2417 6.92497 16.67 6.10505C15.8711 5.02336 14.6625 4.42843 13.0694 4.31377C11.561 4.20128 9.91061 5.14451 9.30631 5.14451C8.66769 5.14451 7.20732 4.35272 6.05825 4.35272C3.68686 4.38733 1.16669 6.13966 1.16669 9.70491C1.16669 10.7585 1.37041 11.8467 1.77785 12.9673C2.32262 14.4427 4.28657 18.0577 6.33521 17.9993C7.40646 17.9755 8.16411 17.2811 9.5581 17.2811C10.9109 17.2811 11.6113 17.9993 12.8062 17.9993C14.8731 17.9712 16.6494 14.685 17.1667 13.2053C14.3947 11.97 14.5435 9.58809 14.5435 9.51237ZM12.1378 2.91407C13.2983 1.61172 13.193 0.426185 13.1587 0C12.1332 0.0562478 10.9475 0.65983 10.2723 1.40187C9.52835 2.19799 9.09115 3.18233 9.185 4.29214C10.2929 4.37219 11.3046 3.8335 12.1378 2.91407Z" fill="#969A99"/>
</g>
</svg>
