<svg width="24" height="24" viewBox="0 0 24 24" fill="none" xmlns="http://www.w3.org/2000/svg">
<g id="Trailing Icon">
<path id="Icon" d="M17.7891 16.793L12.9938 12.0003L17.7891 7.24285C18.0294 6.96452 18.0164 6.54683 17.7592 6.28421C17.5021 6.02158 17.0874 6.00256 16.8076 6.24055L11.9982 10.9627L7.27301 6.20526C6.99956 5.93158 6.55794 5.93158 6.28449 6.20526C6.15177 6.33779 6.07712 6.5182 6.07712 6.70641C6.07712 6.89461 6.15177 7.07503 6.28449 7.20756L11.0027 11.9579L6.20738 16.7083C6.07465 16.8408 6 17.0212 6 17.2094C6 17.3976 6.07465 17.5781 6.20738 17.7106C6.33968 17.8427 6.51879 17.9164 6.70514 17.9153C6.88807 17.9164 7.06418 17.8455 7.19589 17.7176L11.9982 12.9532L16.8076 17.7953C16.9399 17.9274 17.119 18.0011 17.3054 18C17.4893 17.9992 17.6655 17.9257 17.7961 17.7953C17.9279 17.6618 18.0013 17.4809 18 17.2927C17.9987 17.1045 17.9227 16.9246 17.7891 16.793Z" fill="#DF3E51"/>
</g>
</svg>
