<svg width="24" height="24" viewBox="0 0 24 24" fill="none" xmlns="http://www.w3.org/2000/svg">
<g id="Trailing Icon">
<path id="Subtract" fill-rule="evenodd" clip-rule="evenodd" d="M8.46881 7.05411C8.46867 7.05419 8.46853 7.05428 8.46839 7.05436L5.13679 3.72276C4.74627 3.33224 4.11311 3.33224 3.72258 3.72276C3.33206 4.11329 3.33206 4.74645 3.72258 5.13698L6.84457 8.25896L3.42761 10.9893C3.15733 11.2056 3 11.5331 3 11.8793C3 12.2255 3.15733 12.5529 3.42761 12.7693L7.60761 16.1093C9.91284 17.9493 13.0268 18.2497 15.596 17.0104L18.9938 20.4082C19.3843 20.7987 20.0175 20.7987 20.408 20.4082C20.7985 20.0177 20.7985 19.3845 20.408 18.994L17.3031 15.8891L17.3035 15.8888L14.3575 12.9428C14.3574 12.9429 14.3573 12.9431 14.3573 12.9432L11.2536 9.83961C11.2538 9.83954 11.2539 9.83946 11.2541 9.83938L8.46881 7.05411ZM19.2433 14.3388L21.2076 12.7693C21.4779 12.5529 21.6352 12.2255 21.6352 11.8793C21.6352 11.5331 21.4779 11.2056 21.2076 10.9893L17.0276 7.64926C15.2903 6.26252 13.0937 5.75027 11.017 6.11251L19.2433 14.3388ZM10.0176 11.8793C10.0176 11.7391 10.0301 11.6018 10.0542 11.4686L12.7283 14.1427C12.595 14.1667 12.4578 14.1793 12.3176 14.1793C11.0474 14.1793 10.0176 13.1495 10.0176 11.8793Z" fill="#969A99"/>
</g>
</svg>
