<svg width="16" height="16" viewBox="0 0 16 16" fill="none" xmlns="http://www.w3.org/2000/svg">
<g id="Hint icon">
<path id="Icon" fill-rule="evenodd" clip-rule="evenodd" d="M13.3999 4.31331L11.1999 2.11331C10.6994 1.61334 10.0207 1.33276 9.31325 1.33331H6.19992C5.49246 1.33276 4.81378 1.61334 4.31325 2.11331L2.11325 4.31331C1.61328 4.81384 1.3327 5.49252 1.33325 6.19998V9.31331C1.33446 10.0185 1.61491 10.6944 2.11325 11.1933L4.31325 13.4C4.81378 13.9 5.49246 14.1805 6.19992 14.18H9.31325C10.0207 14.1805 10.6994 13.9 11.1999 13.4L13.3999 11.1933C13.8983 10.6944 14.1787 10.0185 14.1799 9.31331V6.19998C14.1805 5.49252 13.8999 4.81384 13.3999 4.31331ZM7.25325 5.51331C7.25325 5.33468 7.34855 5.16962 7.50325 5.0803C7.65795 4.99098 7.84855 4.99098 8.00325 5.0803C8.15795 5.16962 8.25325 5.33468 8.25325 5.51331V7.57998C8.25325 7.85612 8.0294 8.07998 7.75325 8.07998C7.47711 8.07998 7.25325 7.85612 7.25325 7.57998V5.51331ZM7.75992 10.0133C8.03606 10.0133 8.25992 9.78946 8.25992 9.51331C8.25992 9.23717 8.03606 9.01331 7.75992 9.01331C7.48378 9.01331 7.25992 9.23717 7.25992 9.51331C7.25992 9.78946 7.48378 10.0133 7.75992 10.0133Z" fill="#DF3E51"/>
</g>
</svg>
